HIERARCHY
ROOT Hips
{
	OFFSET 0.00000 0.00000 0.00000
	CHANNELS 6 Xposition Yposition Zposition Zrotation Yrotation Xrotation 
	JOINT LHipJoint
	{
		OFFSET 0 0 0
		CHANNELS 3 Zrotation Yrotation Xrotation
		JOINT LeftHip
		{
			OFFSET 1.86795 -1.59681 0.65681
			CHANNELS 3 Zrotation Yrotation Xrotation
			JOINT LeftKnee
			{
				OFFSET 2.30491 -6.33268 0.00000
				CHANNELS 3 Zrotation Yrotation Xrotation
				JOINT LeftAnkle
				{
					OFFSET 2.46780 -6.78022 0.00000
					CHANNELS 3 Zrotation Yrotation Xrotation
					JOINT LeftToe
					{
						OFFSET 0.07897 -0.21698 1.59652
						CHANNELS 3 Zrotation Yrotation Xrotation
						End Site
						{
							OFFSET 0.00000 -0.00000 0.82310
						}
					}
				}
			}
		}
	}
	JOINT RHipJoint
	{
		OFFSET 0 0 0
		CHANNELS 3 Zrotation Yrotation Xrotation
		JOINT RightHip
		{
			OFFSET -1.93650 -1.59681 0.65681
			CHANNELS 3 Zrotation Yrotation Xrotation
			JOINT RightKnee
			{
				OFFSET -2.29410 -6.30299 0.00000
				CHANNELS 3 Zrotation Yrotation Xrotation
				JOINT RightAnkle
				{
					OFFSET -2.48738 -6.83403 0.00000
					CHANNELS 3 Zrotation Yrotation Xrotation
					JOINT RightToe
					{
						OFFSET -0.08699 -0.23899 1.89395
						CHANNELS 3 Zrotation Yrotation Xrotation
						End Site
						{
							OFFSET -0.00000 -0.00000 0.96904
						}
					}
				}
			}
		}
	}
	JOINT lowerback
	{
		OFFSET 0 0 0
		CHANNELS 3 Zrotation Yrotation Xrotation
		JOINT Chest
		{
			OFFSET 0.03629 1.99740 -0.07548
			CHANNELS 3 Zrotation Yrotation Xrotation
			JOINT Chest2
			{
				OFFSET 0.03970 1.94298 0.17218
				CHANNELS 3 Zrotation Yrotation Xrotation
				JOINT lowerneck
				{
					OFFSET 0 0 0
					CHANNELS 3 Zrotation Yrotation Xrotation
					JOINT Neck
					{
						OFFSET -0.05054 1.79469 0.04241
						CHANNELS 3 Zrotation Yrotation Xrotation
						JOINT Head
						{
							OFFSET 0.05195 1.78475 -0.22133
							CHANNELS 3 Zrotation Yrotation Xrotation
							End Site
							{
								OFFSET 0.02420 1.80711 -0.07950
							}
						}
					}
				}
				JOINT LeftCollar
				{
					OFFSET 0 0 0
					CHANNELS 3 Zrotation Yrotation Xrotation
					JOINT LeftShoulder
					{
						OFFSET 2.92134 1.19850 0.36056
CHANNELS 3 Zrotation Xrotation Yrotation
						JOINT LeftElbow
						{
OFFSET 0 -4.841370 0.000000
CHANNELS 3 Zrotation Xrotation Yrotation
							JOINT LeftWrist
							{
OFFSET 0 -3.245200 -0.000000
CHANNELS 3 Zrotation Xrotation Yrotation
								JOINT lhand
								{
									OFFSET 0 0 0
CHANNELS 3 Zrotation Xrotation Yrotation
									JOINT LFingers
									{
OFFSET 0 -0.521220 0.000000
CHANNELS 3 Zrotation Xrotation Yrotation
										End Site
										{
OFFSET 0 -0.420220 0.000000
										}
									}
								}
								JOINT LThumb
								{
OFFSET 0 0.000000 0.000000
CHANNELS 3 Zrotation Xrotation Yrotation
									End Site
									{
OFFSET 0 -0.426640 0.426640
									}
								}
							}
						}
					}
				}
				JOINT RightCollar
				{
					OFFSET 0 0 0
					CHANNELS 3 Zrotation Yrotation Xrotation
					JOINT RightShoulder
					{
						OFFSET -2.84327 1.20795 0.50191
CHANNELS 3 Zrotation Xrotation Yrotation
						JOINT RightElbow
						{
OFFSET 0 -4.722840 0.000000
CHANNELS 3 Zrotation Xrotation Yrotation
							JOINT RightWrist
							{
OFFSET 0 -3.234590 0.000000
CHANNELS 3 Zrotation Xrotation Yrotation
								JOINT rhand
								{
									OFFSET 0 0 0
CHANNELS 3 Zrotation Xrotation Yrotation
									JOINT RFingers
									{
OFFSET 0 -0.307420 0.000000
CHANNELS 3 Zrotation Xrotation Yrotation
										End Site
										{
OFFSET 0 -0.247850 0.000000
										}
									}
								}
								JOINT RThumb
								{
OFFSET 0 0.000000 0.000000
CHANNELS 3 Zrotation Xrotation Yrotation
									End Site
									{
OFFSET 0 -0.251630 0.251630
									}
								}
							}
						}
					}
				}
			}
		}
	}
}
MOTION
Frames: 4
Frame Time: 0.008333333333333333
12.629853 16.867931 8.380640 899.743080 28.190204 -527.361399 0.000000 0.000000 0.000000 -30.453417 -24.767546 8.137435 0.000000 0.000000 0.000000 -0.235365 10.129704 -9.475813 0.032487 -0.995723 -2.738314 0.000000 0.000000 0.000000 3.119155 38.640627 -27.596018 -1.954899 -8.769853 25.078994 -175.549527 35.461108 4.344352 -0.574795 -4.836737 13.447188 -0.917093 0.457606 -4.161753 0.651859 0.908820 -5.131029 1.191544 0.612905 -2.970655 -0.897822 3.842616 -6.118543 5.293669 7.072370 31.617377 3.034938 4.726378 10.951955 0.000000 0.000000 0.000000 0.338318 11.157765 -29.440820 22.413344 -33.441070 6.812269 -3.920137 21.992815 -41.675613 0.000000 0.000000 0.000000 -7.125000 0.000000 0.000000 -51.119847 64.411817 27.286945 0.000000 0.000000 0.000000 -10.355391 17.777390 29.609073 -13.257213 -21.662368 -2.547818 -19.689975 -21.520948 -25.032402 0.000000 0.000000 0.000000 7.125000 0.000000 0.000000 6.000958 3.724568 5.636327
13.627971 16.756310 7.518510 899.945559 23.359290 -527.757795 0.000000 0.000000 0.000000 -28.884812 -20.946752 12.096715 0.000000 0.000000 0.000000 0.150344 4.912198 -10.755583 0.379796 -3.955401 -10.951555 0.000000 0.000000 0.000000 3.750988 40.837696 -24.733223 -1.622882 -8.032081 22.811426 -176.190261 35.606417 -2.908361 -1.479716 -7.685689 21.763466 -1.342334 -0.166287 -3.917782 1.011764 0.116843 -5.344348 1.787930 0.254725 -3.309716 -0.532313 3.874015 -5.651384 5.049836 7.179419 31.148198 2.854256 4.814893 10.703432 0.000000 0.000000 0.000000 0.395830 12.893789 -28.223898 22.398167 -33.424097 6.803847 -7.684262 17.756866 -42.046684 0.000000 0.000000 0.000000 -7.125000 0.000000 0.000000 -55.029417 63.583302 28.961721 0.000000 0.000000 0.000000 -9.730410 17.112788 28.150326 -13.070651 -21.390555 -2.478993 -18.017481 -16.965953 -23.309004 0.000000 0.000000 0.000000 7.125000 0.000000 0.000000 6.887945 5.754241 6.208754
14.757559 16.695428 6.490084 902.434698 20.310659 -527.629561 0.000000 0.000000 0.000000 -24.640692 -17.080602 7.203395 0.873676 5.952292 16.648053 0.517265 0.847115 -13.920688 1.398457 -7.476438 -21.136939 0.000000 0.000000 0.000000 14.496547 31.105444 -22.459391 -2.197654 -9.265752 26.630590 -178.148149 23.315275 6.909714 -0.007145 -0.527262 1.448942 0.268476 -0.588038 -4.248733 1.429304 -0.380940 -5.847057 1.309211 -0.008705 -3.637510 0.316026 4.124969 -5.935922 4.584452 7.902669 32.494504 2.728463 5.291004 11.329522 0.000000 0.000000 0.000000 1.144472 15.134603 -23.072072 18.801487 -29.170696 4.934003 -5.677383 23.391434 -42.173811 0.000000 0.000000 0.000000 -7.125000 0.000000 0.000000 -53.477457 64.225494 28.676001 0.000000 0.000000 0.000000 -9.121277 17.136225 31.356958 -15.285695 -24.542419 -3.343820 -21.040649 -22.326844 -23.797317 0.000000 0.000000 0.000000 7.125000 0.000000 0.000000 5.055112 4.773740 4.636455
15.735153 16.728223 5.550463 903.737125 17.797688 -527.631791 0.000000 0.000000 0.000000 -19.327612 -11.326620 -10.559573 6.816482 15.169259 48.165996 -0.008477 -1.765265 1.490682 0.125985 2.046295 5.643318 0.000000 0.000000 0.000000 21.635804 27.378933 -16.719962 -2.159333 -9.190366 26.392649 -177.955495 25.140940 2.770105 -0.028092 -1.071241 2.944997 1.103025 -0.154771 -4.284105 1.334884 0.200703 -5.864302 0.749747 0.254761 -3.647617 0.024078 4.256433 -5.919600 5.049683 7.980273 31.774212 2.909633 5.350827 11.001732 0.000000 0.000000 0.000000 1.427302 15.616912 -18.370809 16.689726 -26.446900 3.948144 -5.967445 23.505249 -42.486882 0.000000 0.000000 0.000000 -7.125000 0.000000 0.000000 -54.230724 64.338416 29.326750 0.000000 0.000000 0.000000 -9.325771 15.988957 32.837435 -16.398341 -26.057701 -3.819342 -21.419010 -25.219612 -25.081423 0.000000 0.000000 0.000000 7.125000 0.000000 0.000000 4.953345 3.374490 4.670987
